<svg id="Warstwa_1" data-name="Warstwa 1" xmlns="http://www.w3.org/2000/svg" width="70.08" height="50.43" viewBox="0 0 70.08 50.43"><defs><style>.cls-1{fill:#fff;}</style></defs><title>clock_icon</title><path class="cls-1" d="M22.24,39.8c-.13-.34-.33-.83-.59-1.39L21.49,38l0,.1a9.86,9.86,0,0,0-1.93-2.85c-5-4.52-17.3-3.19-17.3-3.19a48.29,48.29,0,0,1,6.51,1.22C19.51,36.19,23.24,42,22.71,40.86Z" transform="translate(-2.28 -4.28)"/><polygon class="cls-1" points="64.46 37.99 64.46 38.21 64.46 37.99 64.46 37.99"/><polygon class="cls-1" points="58.2 44.24 58.2 44.24 58.2 44.47 58.2 44.24"/><polygon class="cls-1" points="49.65 46.76 49.65 46.53 49.65 46.53 49.65 46.76"/><polygon class="cls-1" points="66.75 29.67 66.75 29.44 66.75 29.44 66.75 29.67"/><path class="cls-1" d="M48.86,11.24a.58.58,0,0,0,.55.63h.28l2.24,0c1,0,2.43.16,2.43.16a.56.56,0,0,0,.64-.57v-.79a.65.65,0,0,1,.65-.65H57a.65.65,0,0,0,.65-.65V4.93A.65.65,0,0,0,57,4.28H46.88a.65.65,0,0,0-.65.65v4.4a.65.65,0,0,0,.65.65h1.33a.65.65,0,0,1,.65.65Z" transform="translate(-2.28 -4.28)"/><path class="cls-1" d="M55.83,13.67,55,13.53a20.41,20.41,0,0,0-3.07-.24l-2.24,0-.83,0c-5,.18-10.05.66-11.48,1.43,2.47,1,2.36,1.89,2,2.31a1.62,1.62,0,0,1-1.71.32C30.12,15.64,20.3,20,19.77,22c8.12-.87,11.57,4,11.75,5.07a14.31,14.31,0,0,1,.18,3.77l-.08-.16c-1.27-2.54-3.74-5.39-7.83-5.43-2.71,0-8.12.23-15.14,4.33,5.46.28,13.85,1.27,16.26,9,3,9.61,12.53,11.22,13.78,11.44a3.71,3.71,0,0,1,1.83.67c-2,1.41-10.06-1.51-11.38-1.89,15.71,9.56,28,4.69,28,4.69h0a20.43,20.43,0,0,0-1.32-39.81Zm10.72,28-1.4-.81c-.14.27-.3.53-.46.79l1.4.81a16.7,16.7,0,0,1-5.46,5.46l-.81-1.4c-.26.16-.52.31-.79.46l.81,1.4a16.54,16.54,0,0,1-7.46,2V48.72h-.91v1.61a16.54,16.54,0,0,1-7.46-2l.81-1.4c-.27-.14-.53-.3-.79-.46l-.81,1.4a16.7,16.7,0,0,1-5.46-5.46l1.4-.81c-.16-.26-.31-.52-.46-.79l-1.4.81a16.54,16.54,0,0,1-2-7.46h1.61c0-.15,0-.3,0-.46s0-.3,0-.46H35.32a16.54,16.54,0,0,1,2-7.46l1.4.81c.14-.27.3-.53.46-.79L37.76,25a16.71,16.71,0,0,1,5.46-5.46L44,21c.26-.16.52-.31.79-.46L44,19.1a16.54,16.54,0,0,1,7.46-2v1.61h.91V17.11a16.54,16.54,0,0,1,7.46,2L59,20.5c.27.14.53.3.79.46l.81-1.4A16.7,16.7,0,0,1,66.09,25l-1.4.81c.16.26.31.52.46.79l1.4-.81a16.53,16.53,0,0,1,2,7.46H66.93c0,.15,0,.3,0,.46s0,.3,0,.46h1.61A16.54,16.54,0,0,1,66.55,41.64Z" transform="translate(-2.28 -4.28)"/><path class="cls-1" d="M69.56,14.59a.65.65,0,0,0-.06-.91l-2.74-2.39a.65.65,0,0,0-.91.06l-1.22,1.4a.65.65,0,0,0,.06.91l.39.34a.65.65,0,0,1,.06.91l-.57.65c-.23.27-.05.5.22.73h0c.27.23.55.32.78.05l.54-.58a.65.65,0,0,1,.91-.06l.39.34a.65.65,0,0,0,.91-.06Z" transform="translate(-2.28 -4.28)"/><path class="cls-1" d="M53.95,32.5a2.32,2.32,0,0,0-2.15-1.16L46,22.56c-1.22-1.74-1.49-1.59-.61.35L50,32.38A2.32,2.32,0,0,0,51.76,36l.86,1.77c.89,1.93,0-.83.9-1.32s2.81,1.64,1.59-.11L54,34.69A2.33,2.33,0,0,0,53.95,32.5Z" transform="translate(-2.28 -4.28)"/></svg>