<svg id="Ñëîé_1" data-name="Ñëîé 1" xmlns="http://www.w3.org/2000/svg" xmlns:xlink="http://www.w3.org/1999/xlink" width="55.19" height="58.11" viewBox="0 0 55.19 58.11"><defs><style>.cls-1{fill:url(#linear-gradient);}.cls-2{fill:url(#linear-gradient-2);}.cls-3{fill:url(#linear-gradient-3);}.cls-4{fill:url(#linear-gradient-4);}.cls-5{fill:url(#linear-gradient-5);}.cls-6{fill:url(#linear-gradient-6);}</style><linearGradient id="linear-gradient" x1="-1042.39" y1="1125.14" x2="-1082.77" y2="1117.12" gradientTransform="matrix(0.67, -0.74, 0.74, 0.67, -99.73, -1488.54)" gradientUnits="userSpaceOnUse"><stop offset="0" stop-color="#b77214"/><stop offset="0.14" stop-color="#ecb442"/><stop offset="0.33" stop-color="#f5c352"/><stop offset="0.65" stop-color="#ffff93"/><stop offset="1" stop-color="#ffff9e"/></linearGradient><linearGradient id="linear-gradient-2" x1="-1077.9" y1="1127.88" x2="-1054.87" y2="1103.88" gradientTransform="matrix(0.67, -0.74, 0.74, 0.67, -99.73, -1488.54)" gradientUnits="userSpaceOnUse"><stop offset="0.03" stop-color="#b77214"/><stop offset="0.12" stop-color="#ecb442"/><stop offset="0.23" stop-color="#f5c352"/><stop offset="0.26" stop-color="#f6c656"/><stop offset="0.29" stop-color="#f7d161"/><stop offset="0.32" stop-color="#fae274"/><stop offset="0.34" stop-color="#fefa8e"/><stop offset="0.35" stop-color="#ffff93"/><stop offset="0.36" stop-color="#f8f489"/><stop offset="0.38" stop-color="#e2d169"/><stop offset="0.41" stop-color="#d0b44f"/><stop offset="0.44" stop-color="#c29e3b"/><stop offset="0.48" stop-color="#b88e2c"/><stop offset="0.51" stop-color="#b28524"/><stop offset="0.57" stop-color="#b08221"/></linearGradient><linearGradient id="linear-gradient-3" x1="-1061.71" y1="1144.94" x2="-1018.79" y2="1106.07" gradientTransform="matrix(0.67, -0.74, 0.74, 0.67, -99.73, -1488.54)" gradientUnits="userSpaceOnUse"><stop offset="0" stop-color="#b77214"/><stop offset="0.07" stop-color="#ffff61"/><stop offset="0.1" stop-color="#fef55b"/><stop offset="0.15" stop-color="#fadb4b"/><stop offset="0.17" stop-color="#f8cc42"/><stop offset="0.21" stop-color="#f3c142"/><stop offset="0.25" stop-color="#ecb442"/><stop offset="0.34" stop-color="#f4c150"/><stop offset="0.35" stop-color="#f5c352"/><stop offset="0.65" stop-color="#ffff93"/><stop offset="0.82" stop-color="#ffff9d"/><stop offset="0.85" stop-color="#fdf997"/><stop offset="0.9" stop-color="#f7e786"/><stop offset="0.95" stop-color="#edcb6a"/><stop offset="1" stop-color="#e2a949"/></linearGradient><linearGradient id="linear-gradient-4" x1="-1045.94" y1="1111.47" x2="-1010.02" y2="1108.28" xlink:href="#linear-gradient"/><linearGradient id="linear-gradient-5" x1="-1045.88" y1="1112.18" x2="-1009.96" y2="1108.99" gradientTransform="matrix(0.67, -0.74, 0.74, 0.67, -99.73, -1488.54)" gradientUnits="userSpaceOnUse"><stop offset="0" stop-color="#f0a43e"/><stop offset="0.35" stop-color="#ffff93"/><stop offset="0.46" stop-color="#fff"/><stop offset="0.73" stop-color="#bf8f26"/></linearGradient><linearGradient id="linear-gradient-6" x1="-1026.38" y1="1142.04" x2="-1011.57" y2="1108.67" gradientTransform="matrix(0.67, -0.74, 0.74, 0.67, -99.73, -1488.54)" gradientUnits="userSpaceOnUse"><stop offset="0" stop-color="#b77214"/><stop offset="0.07" stop-color="#ffff61"/><stop offset="0.14" stop-color="#f8cc42"/><stop offset="0.21" stop-color="#ecb442"/><stop offset="0.33" stop-color="#f5c352"/><stop offset="0.65" stop-color="#ffff93"/><stop offset="1" stop-color="#ffff9e"/></linearGradient></defs><title>form_arrow</title><path class="cls-1" d="M28.5,54.58c-1.36,3.7-3.78,10.73-9.17,11.41C13.07,65.83,13,52.32,11,47v.08c-.76,7.82.88,20.18,8.07,20.4v0c7.72-.9,11.72-12.34,15.6-34.4L33.62,33C31.75,42.26,30.36,49.53,28.5,54.58Z" transform="translate(-10.87 -9.41)"/><path class="cls-2" d="M25.18,61.81C17.24,60.47,14.1,54.16,11,47c.48,2.75-.19,18.82,8.29,19C21.08,65.93,23.31,64.65,25.18,61.81Z" transform="translate(-10.87 -9.41)"/><path class="cls-3" d="M57,34.29C52.79,55.74,44.58,66.91,37.12,67.48l-18.19,0c7.72-.9,11.66-12.51,15.8-34.44l-9.15-.5c7-6.26,13-11.92,22.75-22.32,6.16,8.18,9.17,12.4,17.74,24.51Z" transform="translate(-10.87 -9.41)"/><path class="cls-4" d="M46.59,9.41a306.49,306.49,0,0,1-21.48,22c.2.42.26.64.46,1.15C32,27,39.48,19.66,48.32,10.26,47.47,9.86,47.28,9.76,46.59,9.41Z" transform="translate(-10.87 -9.41)"/><path class="cls-5" d="M48.28,10.93A287,287,0,0,1,26.56,32.31c-.26.11-.67.13-1,.27C32,27,39.48,19.66,48.32,10.26,48.31,10.59,48.3,10.71,48.28,10.93Z" transform="translate(-10.87 -9.41)"/><path class="cls-6" d="M48.28,10.93C54,18.55,57.21,23,65.18,34.29c0,0,.85.49.88.49C57.52,22.7,54.44,18.4,48.32,10.27Z" transform="translate(-10.87 -9.41)"/></svg>