<?xml version="1.0" encoding="utf-8"?>
<!-- Generator: Adobe Illustrator 16.0.0, SVG Export Plug-In . SVG Version: 6.00 Build 0)  -->
<!DOCTYPE svg PUBLIC "-//W3C//DTD SVG 1.1//EN" "http://www.w3.org/Graphics/SVG/1.1/DTD/svg11.dtd">
<svg version="1.1" id="Layer_1" xmlns="http://www.w3.org/2000/svg" xmlns:xlink="http://www.w3.org/1999/xlink" x="0px" y="0px"
	 width="239.985px" height="110.257px" viewBox="0 0 239.985 110.257" enable-background="new 0 0 239.985 110.257"
	 xml:space="preserve">
<path fill="#464646" d="M123.4,79.558l-0.703,1.656h1.405L123.4,79.558z M124.857,83.016l-0.479-1.134h-1.957l-0.479,1.134h-0.871
	l2.282-5.021h0.119l2.278,5.021H124.857"/>
<g>
	<defs>
		<rect id="SVGID_1_" width="239.985" height="110.257"/>
	</defs>
	<clipPath id="SVGID_2_">
		<use xlink:href="#SVGID_1_"  overflow="visible"/>
	</clipPath>
	<path clip-path="url(#SVGID_2_)" fill="#464646" d="M171.595,83.096c-1.566,0-2.667-1.08-2.667-2.552
		c0-1.467,1.116-2.559,2.667-2.559c0.613,0,1.176,0.195,1.595,0.449l-0.291,0.719c-0.393-0.225-0.878-0.381-1.317-0.381
		c-1.087,0-1.748,0.725-1.748,1.771c0,1.04,0.683,1.762,1.77,1.762c0.438,0,0.952-0.154,1.35-0.392l0.256,0.717
		C172.798,82.895,172.208,83.096,171.595,83.096"/>
	<path clip-path="url(#SVGID_2_)" fill="#464646" d="M176.646,78.742c-0.944,0-1.6,0.768-1.6,1.801c0,1.028,0.655,1.803,1.6,1.803
		c0.938,0,1.595-0.774,1.595-1.803C178.241,79.51,177.585,78.742,176.646,78.742 M176.62,83.096c-1.433,0-2.481-1.087-2.481-2.553
		c0-1.471,1.095-2.559,2.527-2.559c1.432,0,2.479,1.088,2.479,2.559C179.145,82.009,178.051,83.096,176.62,83.096"/>
	<polygon clip-path="url(#SVGID_2_)" fill="#464646" points="184.444,83.016 184.377,80.05 182.816,82.413 182.716,82.413 
		181.142,80.044 181.088,83.016 180.257,83.016 180.467,78.005 180.594,77.991 182.788,81.273 184.932,77.991 185.065,78.005 
		185.276,83.016 	"/>
	<path clip-path="url(#SVGID_2_)" fill="#464646" d="M188.317,78.808c-0.188,0-0.378,0.015-0.553,0.04v1.813
		c0.167,0.012,0.324,0.024,0.471,0.024c0.764,0,1.115-0.397,1.115-0.959C189.351,79.239,189.006,78.808,188.317,78.808
		 M188.257,81.423c-0.162,0-0.331-0.014-0.492-0.021v1.614h-0.846v-4.903c0.438-0.056,0.851-0.08,1.256-0.08
		c1.357,0,2.054,0.742,2.054,1.667C190.229,80.705,189.52,81.423,188.257,81.423"/>
	<polygon clip-path="url(#SVGID_2_)" fill="#464646" points="204.334,80.935 204.334,83.015 203.49,83.015 203.49,80.929 
		201.746,78.066 202.714,78.066 203.928,80.159 205.131,78.066 206.075,78.066 	"/>
	<path clip-path="url(#SVGID_2_)" fill="#464646" d="M192.891,79.558l-0.701,1.656h1.404L192.891,79.558z M194.351,83.016
		l-0.481-1.134h-1.957l-0.479,1.134h-0.871l2.282-5.019h0.12l2.277,5.019H194.351"/>
	<polygon clip-path="url(#SVGID_2_)" fill="#464646" points="200.467,83.108 197.367,79.843 197.367,83.016 196.522,83.016 
		196.522,77.997 196.658,77.97 199.719,81.191 199.719,78.065 200.561,78.065 200.561,83.091 	"/>
	<path clip-path="url(#SVGID_2_)" fill="#464646" d="M133.467,80.396v2.16c-0.526,0.345-1.102,0.541-1.845,0.541
		c-1.411,0-2.627-1.027-2.627-2.554c0-1.539,1.236-2.559,2.627-2.559c0.73,0,1.251,0.201,1.757,0.513l-0.386,0.676
		c-0.398-0.257-0.871-0.411-1.33-0.411c-1.128,0-1.764,0.796-1.764,1.781c0,1.054,0.778,1.804,1.757,1.804
		c0.425,0,0.709-0.074,1.001-0.236v-0.974h-1.156v-0.741H133.467"/>
	<path clip-path="url(#SVGID_2_)" fill="#464646" d="M136.759,79.558l-0.702,1.656h1.404L136.759,79.558z M138.219,83.016
		l-0.48-1.134h-1.957l-0.482,1.134h-0.87l2.283-5.019h0.119l2.276,5.019H138.219"/>
	<polygon clip-path="url(#SVGID_2_)" fill="#464646" points="144.334,83.108 141.234,79.843 141.234,83.016 140.389,83.016 
		140.389,77.997 140.525,77.97 143.583,81.191 143.583,78.065 144.427,78.065 144.427,83.091 	"/>
	<polygon clip-path="url(#SVGID_2_)" fill="#464646" points="150.057,83.108 146.956,79.843 146.956,83.016 146.113,83.016 
		146.113,77.997 146.248,77.97 149.306,81.191 149.306,78.065 150.15,78.065 150.15,83.091 	"/>
	<polygon clip-path="url(#SVGID_2_)" fill="#464646" points="151.838,83.016 151.838,78.065 154.855,78.065 154.855,78.835 
		152.683,78.835 152.683,80.131 154.647,80.131 154.647,80.875 152.683,80.875 152.683,82.245 154.855,82.245 154.855,83.016 	"/>
	<polygon clip-path="url(#SVGID_2_)" fill="#464646" points="158.571,78.835 158.571,83.016 157.727,83.016 157.727,78.835 
		156.152,78.835 156.152,78.065 160.137,78.065 160.137,78.835 	"/>
	<polygon clip-path="url(#SVGID_2_)" fill="#464646" points="163.57,78.835 163.57,83.016 162.726,83.016 162.726,78.835 
		161.151,78.835 161.151,78.065 165.137,78.065 165.137,78.835 	"/>
	<path clip-path="url(#SVGID_2_)" fill="#464646" d="M110.258,55.129c0,30.446-24.682,55.127-55.13,55.127
		C24.683,110.257,0,85.575,0,55.129c0-30.448,24.683-55.13,55.128-55.13C85.576-0.001,110.258,24.681,110.258,55.129"/>
	<polygon clip-path="url(#SVGID_2_)" fill="#464646" points="234.388,67.729 234.388,64.821 233.301,64.821 233.301,64.433 
		235.914,64.433 235.914,64.821 234.823,64.821 234.823,67.729 	"/>
	<path clip-path="url(#SVGID_2_)" fill="#464646" d="M236.349,67.729v-3.297h0.657l0.78,2.334c0.071,0.217,0.123,0.38,0.156,0.487
		c0.038-0.119,0.096-0.296,0.175-0.527l0.79-2.294h0.588v3.297h-0.42v-2.76l-0.959,2.76h-0.394l-0.954-2.808v2.808H236.349"/>
	<path clip-path="url(#SVGID_2_)" fill="#464646" d="M118.064,28.078V11.903h7.273v14.076c0,2.786,0.29,5.5,3.943,5.5
		c3.656,0,3.946-2.714,3.946-5.5V11.903h7.273v16.175c0,6.26-4.018,9.734-11.22,9.734C121.863,37.813,118.064,34.338,118.064,28.078
		"/>
	<path clip-path="url(#SVGID_2_)" fill="#464646" d="M142.457,34.121l3.51-4.849c1.305,1.556,3.475,2.967,5.973,2.967
		c1.88,0,3.003-0.795,3.003-2.279c0-1.774-1.629-2.28-4.379-3.112c-3.692-1.122-6.947-3.04-6.947-7.418
		c0-4.814,3.944-8.034,9.517-8.034c3.871,0,6.804,1.194,8.648,2.931l-3.294,4.849c-1.049-1.194-2.823-2.207-4.993-2.207
		c-1.882,0-2.678,0.76-2.678,1.773c0,1.592,1.919,2.026,4.018,2.678c4.124,1.302,7.309,3.184,7.309,7.852
		c0,4.885-3.51,8.54-9.842,8.54C147.631,37.813,144.013,35.822,142.457,34.121"/>
	<path clip-path="url(#SVGID_2_)" fill="#464646" d="M178.754,27.86l-1.955-6.115c-0.397-1.194-0.723-2.714-0.867-3.8h-0.219
		c-0.144,1.086-0.471,2.606-0.866,3.8l-1.955,6.115H178.754z M171.914,11.903h7.998l9.442,25.402h-7.562l-1.192-3.654h-9.591
		l-1.157,3.654h-7.381L171.914,11.903"/>
	<polygon clip-path="url(#SVGID_2_)" fill="#464646" points="124.435,48.267 118.174,48.267 118.174,42.369 137.967,42.369 
		137.967,48.267 131.708,48.267 131.708,67.771 124.435,67.771 	"/>
	<path clip-path="url(#SVGID_2_)" fill="#464646" d="M158.884,55.105c0-4.559-2.965-6.912-6.513-6.912
		c-3.474,0-6.442,2.353-6.442,6.912c0,4.523,2.969,6.84,6.442,6.84C155.919,61.945,158.884,59.629,158.884,55.105 M138.477,55.105
		c0-6.26,4.486-13.244,13.931-13.244c9.48,0,13.968,6.984,13.968,13.244c0,6.224-4.487,13.172-13.968,13.172
		C142.963,68.277,138.477,61.329,138.477,55.105"/>
	<path clip-path="url(#SVGID_2_)" fill="#464646" d="M176.257,61.909h1.558c4.666,0,7.163-2.244,7.163-6.84
		c0-4.596-2.497-6.839-7.163-6.839h-1.558V61.909z M168.984,42.369h9.371c8.974,0,14.113,4.776,14.113,12.7
		c0,7.781-5.283,12.701-14.113,12.701h-9.371V42.369"/>
	<path clip-path="url(#SVGID_2_)" fill="#464646" d="M207.742,58.326l-1.955-6.116c-0.397-1.193-0.723-2.714-0.867-3.798h-0.219
		c-0.144,1.084-0.471,2.605-0.867,3.798l-1.954,6.116H207.742z M200.902,42.369h7.998l9.442,25.402h-7.562l-1.192-3.654h-9.591
		l-1.157,3.654h-7.383L200.902,42.369"/>
	<path clip-path="url(#SVGID_2_)" fill="#464646" d="M222.834,58.725l-9.481-16.355h7.961l3.438,6.259
		c0.723,1.339,1.738,3.365,1.954,4.705h0.144c0.218-1.34,1.232-3.366,1.955-4.705l3.438-6.259h7.742l-9.48,16.355v9.047h-7.671
		V58.725"/>
</g>
</svg>
