<?xml version="1.0" encoding="utf-8"?>
<!-- Generator: Adobe Illustrator 16.0.0, SVG Export Plug-In . SVG Version: 6.00 Build 0)  -->
<!DOCTYPE svg PUBLIC "-//W3C//DTD SVG 1.1//EN" "http://www.w3.org/Graphics/SVG/1.1/DTD/svg11.dtd">
<svg version="1.1" id="Layer_1" xmlns="http://www.w3.org/2000/svg" xmlns:xlink="http://www.w3.org/1999/xlink" x="0px" y="0px"
	 width="280.163px" height="54.771px" viewBox="0 0 280.163 54.771" enable-background="new 0 0 280.163 54.771"
	 xml:space="preserve">
<g>
	<defs>
		<rect id="SVGID_1_" y="0" width="280.163" height="54.771"/>
	</defs>
	<clipPath id="SVGID_2_">
		<use xlink:href="#SVGID_1_"  overflow="visible"/>
	</clipPath>
	<path clip-path="url(#SVGID_2_)" fill-rule="evenodd" clip-rule="evenodd" fill="#464646" d="M112.754,42.833
		c-10.559,7.793-25.869,11.938-39.052,11.938c-18.477,0-35.114-6.83-47.705-18.198c-0.988-0.893-0.107-2.112,1.082-1.421
		c13.584,7.904,30.382,12.666,47.732,12.666c11.704,0,24.57-2.43,36.408-7.45C113.005,39.609,114.502,41.543,112.754,42.833"/>
	<path clip-path="url(#SVGID_2_)" fill-rule="evenodd" clip-rule="evenodd" fill="#464646" d="M117.149,37.816
		c-1.351-1.729-8.929-0.819-12.333-0.412c-1.03,0.123-1.191-0.776-0.261-1.43c6.044-4.246,15.949-3.02,17.1-1.599
		c1.16,1.435-0.304,11.365-5.969,16.104c-0.871,0.729-1.7,0.34-1.314-0.623C115.647,46.674,118.501,39.547,117.149,37.816"/>
	<path clip-path="url(#SVGID_2_)" fill-rule="evenodd" clip-rule="evenodd" fill="#464646" d="M105.057,5.982V1.857
		c0.002-0.628,0.475-1.047,1.046-1.046l18.489-0.001c0.592,0,1.066,0.43,1.067,1.042l-0.001,3.538
		c-0.005,0.593-0.504,1.368-1.392,2.597l-9.578,13.675c3.556-0.084,7.317,0.448,10.547,2.264c0.728,0.409,0.923,1.016,0.981,1.61
		v4.402c0,0.606-0.664,1.308-1.361,0.943c-5.692-2.981-13.244-3.308-19.537,0.035c-0.643,0.344-1.316-0.349-1.316-0.956v-4.184
		c0-0.669,0.013-1.815,0.688-2.836l11.096-15.919l-9.661-0.002C105.534,7.021,105.061,6.601,105.057,5.982"/>
	<path clip-path="url(#SVGID_2_)" fill-rule="evenodd" clip-rule="evenodd" fill="#464646" d="M37.61,31.749h-5.625
		c-0.535-0.035-0.963-0.438-1.006-0.951l0.004-28.87c0-0.578,0.486-1.04,1.085-1.04l5.239-0.001
		c0.548,0.028,0.988,0.443,1.023,0.969v3.769h0.105c1.365-3.645,3.938-5.346,7.403-5.346c3.518,0,5.724,1.701,7.299,5.346
		c1.365-3.645,4.463-5.346,7.771-5.346c2.363,0,4.936,0.972,6.511,3.159c1.785,2.43,1.418,5.954,1.418,9.053L68.833,30.71
		c0,0.577-0.486,1.039-1.085,1.039H62.13c-0.565-0.036-1.01-0.484-1.01-1.037l-0.002-15.305c0-1.215,0.106-4.253-0.157-5.408
		c-0.42-1.943-1.68-2.49-3.308-2.49c-1.365,0-2.783,0.911-3.361,2.369s-0.525,3.888-0.525,5.529V30.71
		c0,0.577-0.486,1.039-1.084,1.039h-5.619c-0.565-0.036-1.01-0.484-1.01-1.037l-0.006-15.305c0-3.22,0.526-7.959-3.465-7.959
		c-4.043,0-3.886,4.617-3.886,7.959L38.695,30.71C38.695,31.287,38.209,31.749,37.61,31.749"/>
	<path clip-path="url(#SVGID_2_)" fill-rule="evenodd" clip-rule="evenodd" fill="#464646" d="M141.576,0.279c8.349,0,12.864,7.169,12.864,16.282
		c0,8.809-4.988,15.796-12.864,15.796c-8.192,0-12.655-7.169-12.655-16.1C128.921,7.266,133.437,0.279,141.576,0.279 M141.628,6.172
		c-4.149,0-4.411,5.65-4.411,9.173c0,3.524-0.052,11.058,4.359,11.058c4.358,0,4.568-6.076,4.568-9.781
		c0-2.43-0.105-5.347-0.841-7.655C144.673,6.962,143.413,6.172,141.628,6.172"/>
	<path clip-path="url(#SVGID_2_)" fill-rule="evenodd" clip-rule="evenodd" fill="#464646" d="M165.268,31.749h-5.604
		c-0.563-0.036-1.01-0.484-1.01-1.037L158.646,1.83c0.047-0.527,0.513-0.942,1.08-0.942l5.218-0.001
		c0.491,0.025,0.896,0.36,0.999,0.808v4.416h0.105c1.576-3.949,3.78-5.832,7.666-5.832c2.521,0,4.989,0.911,6.564,3.402
		c1.47,2.309,1.47,6.197,1.47,8.992v18.166c-0.063,0.512-0.521,0.91-1.078,0.91h-5.639c-0.521-0.034-0.941-0.416-1.002-0.91V15.164
		c0-3.159,0.368-7.777-3.518-7.777c-1.366,0-2.626,0.912-3.256,2.309c-0.787,1.762-0.894,3.524-0.894,5.468V30.71
		C166.353,31.287,165.866,31.749,165.268,31.749"/>
	<path clip-path="url(#SVGID_2_)" fill-rule="evenodd" clip-rule="evenodd" fill="#464646" d="M185.274,29.458c0-1.453,1.24-2.63,2.769-2.63
		c1.529,0,2.769,1.177,2.769,2.63c0,1.452-1.239,2.63-2.769,2.63C186.515,32.088,185.274,30.91,185.274,29.458"/>
	<path fill="#464646" clip-path="url(#SVGID_2_)" d="M244.872,31.757c-0.583-0.018-1.05-0.473-1.05-1.038V1.844c0.04-0.51,0.471-0.915,1.008-0.95
		l2.064-0.001c0.568,0,1.034,0.416,1.08,0.951v4.21c1.468-3.336,4.204-5.95,7.662-5.95l0.217,0.004l0.208-0.004
		c3.668,0,6.353,2.707,7.35,6.638c1.554-3.881,4.482-6.638,8.345-6.638l0.2,0.004l0.226-0.004c2.729,0,5.355,1.762,6.721,4.436
		c1.313,2.551,1.261,5.953,1.261,8.809l-0.001,17.37c0.001,0.553-0.445,1.001-1.011,1.037h-2.471
		c-0.532-0.017-0.968-0.398-1.039-0.896V13.35c0-2.066,0.104-4.253-0.736-6.137c-0.857-1.928-2.492-3.125-4.252-3.214
		c-1.964,0.098-3.766,1.523-4.931,3.457c-1.523,2.491-1.47,4.739-1.47,7.655v15.76c-0.069,0.479-0.486,0.853-1,0.887h-2.459
		c-0.583-0.018-1.052-0.473-1.052-1.038l-0.011-18.524c0-1.701-0.104-3.706-0.892-5.225c-0.907-1.748-2.538-2.881-4.245-2.971
		c-1.771,0.099-3.563,1.453-4.625,3.032c-1.364,2.005-1.627,4.496-1.627,7.048l-0.001,16.641c0,0.553-0.447,1.001-1.01,1.037
		H244.872z"/>
	<path fill="#464646" clip-path="url(#SVGID_2_)" d="M227.921,32.364c-7.981,0-11.552-8.141-11.552-16.282c0-8.566,4.2-15.978,12.234-15.978
		l0.207,0.002l0.218-0.002c7.823,0,11.709,7.898,11.709,16.039c0,8.627-4.305,16.221-12.392,16.221l-0.207-0.002L227.921,32.364z
		 M228.509,28.412c2.626-0.086,4.697-1.712,5.923-4.431c1.102-2.43,1.313-5.225,1.313-7.898c0-2.916-0.316-5.954-1.681-8.444
		c-1.223-2.179-3.331-3.559-5.564-3.642c-2.486,0.092-4.702,1.772-5.825,4.371c-0.997,2.247-1.313,5.224-1.313,7.715
		c0,2.795,0.368,6.015,1.523,8.445C224.008,26.83,226.172,28.33,228.509,28.412"/>
	<path fill="#464646" clip-path="url(#SVGID_2_)" d="M202.979,28.291c3.583-0.112,5.463-2.984,6.245-6.706c0.152-0.464,0.508-0.822,1.03-0.822
		l2.371-0.009c0.558,0.029,1.071,0.457,1.028,0.978c-1.094,6.331-4.916,10.633-10.362,10.633l-0.221-0.003l-0.205,0.003
		c-7.929,0-11.342-7.958-11.342-16.039c0-8.019,3.465-16.221,11.395-16.221l0.209,0.002l0.216-0.002
		c5.502,0,9.429,4.24,10.281,10.576c0,0.475-0.441,0.887-0.958,0.947l-2.484-0.029c-0.516-0.074-0.857-0.523-0.934-1.02
		c-0.6-3.537-2.631-6.349-6.016-6.461c-5.391,0.173-6.925,6.808-6.925,11.904C196.309,20.941,197.589,28.113,202.979,28.291"/>
	<path fill="#464646" clip-path="url(#SVGID_2_)" fill-rule="evenodd" clip-rule="evenodd" d="M90.317,17.961c0,2.192,0.052,4.018-1.052,5.967
		c-0.895,1.583-2.316,2.557-3.895,2.557c-2.157,0-3.42-1.644-3.42-4.079c0-4.791,4.297-5.663,8.367-5.663V17.961z M95.988,31.677
		c-0.373,0.334-0.909,0.355-1.329,0.131c-1.868-1.553-2.203-2.271-3.224-3.749c-3.088,3.146-5.275,4.089-9.275,4.089
		c-4.735,0-8.419-2.922-8.419-8.767c0-4.567,2.473-7.672,5.999-9.194c3.052-1.34,7.314-1.583,10.577-1.948v-0.731
		c0-1.339,0.105-2.923-0.684-4.079c-0.684-1.036-2-1.462-3.157-1.462c-2.146,0-4.053,1.1-4.522,3.378
		c-0.097,0.507-0.467,1.008-0.977,1.034l-5.452-0.59c-0.461-0.104-0.972-0.473-0.839-1.176C75.939,1.999,81.912,0,87.265,0
		c2.736,0,6.315,0.731,8.472,2.801c2.737,2.557,2.473,5.967,2.473,9.681v8.764c0,2.636,1.095,3.793,2.124,5.213
		c0.359,0.512,0.44,1.121-0.019,1.494c-1.149,0.964-3.19,2.737-4.314,3.736L95.988,31.677z"/>
	<path fill="#464646" clip-path="url(#SVGID_2_)" fill-rule="evenodd" clip-rule="evenodd" d="M16.575,17.961c0,2.192,0.053,4.018-1.052,5.967
		c-0.894,1.583-2.315,2.557-3.894,2.557c-2.157,0-3.42-1.644-3.42-4.079c0-4.791,4.297-5.663,8.366-5.663V17.961z M22.247,31.677
		c-0.373,0.334-0.91,0.355-1.329,0.131c-1.869-1.553-2.203-2.271-3.225-3.749c-3.087,3.146-5.274,4.089-9.274,4.089
		C3.683,32.147,0,29.226,0,23.38c0-4.567,2.473-7.672,5.999-9.194c3.052-1.34,7.314-1.583,10.576-1.948v-0.731
		c0-1.339,0.106-2.923-0.683-4.079c-0.684-1.036-2-1.462-3.157-1.462c-2.146,0-4.054,1.1-4.522,3.378
		c-0.098,0.507-0.467,1.008-0.978,1.034l-5.451-0.59c-0.461-0.104-0.973-0.473-0.84-1.176C2.197,1.999,8.17,0,13.523,0
		c2.737,0,6.315,0.731,8.473,2.801c2.736,2.557,2.473,5.967,2.473,9.681v8.764c0,2.636,1.095,3.793,2.123,5.213
		c0.359,0.512,0.44,1.121-0.018,1.494c-1.149,0.964-3.191,2.737-4.314,3.736L22.247,31.677z"/>
</g>
</svg>
