<?xml version="1.0" encoding="utf-8"?>
<!-- Generator: Adobe Illustrator 16.0.0, SVG Export Plug-In . SVG Version: 6.00 Build 0)  -->
<!DOCTYPE svg PUBLIC "-//W3C//DTD SVG 1.1//EN" "http://www.w3.org/Graphics/SVG/1.1/DTD/svg11.dtd">
<svg version="1.1" id="Layer_1" xmlns="http://www.w3.org/2000/svg" xmlns:xlink="http://www.w3.org/1999/xlink" x="0px" y="0px"
	 width="213.945px" height="53.61px" viewBox="0 0 213.945 53.61" enable-background="new 0 0 213.945 53.61" xml:space="preserve">
<g>
	<defs>
		<rect id="SVGID_1_" width="213.945" height="53.61"/>
	</defs>
	<clipPath id="SVGID_2_">
		<use xlink:href="#SVGID_1_"  overflow="visible"/>
	</clipPath>
	<path clip-path="url(#SVGID_2_)" fill-rule="evenodd" clip-rule="evenodd" fill="#5E5E5E" d="M130.334,15.247
		c-3.442,0-6.147,0.738-8.853,2.213c0-7.868,0-15,0.246-17.46l-16.476,2.951v1.476l1.721,0.246c2.213,0.491,2.952,1.721,3.443,4.672
		c0.492,5.902,0.246,37.379,0,42.543c4.427,0.983,9.099,1.722,13.771,1.722c13.034,0,20.902-8.115,20.902-20.903
		C145.089,22.624,138.695,15.247,130.334,15.247 M124.679,50.904c-0.984,0-2.213,0-2.951-0.246
		c-0.246-3.441-0.492-17.951-0.246-30.738c1.475-0.493,2.458-0.738,3.688-0.738c5.409,0,8.361,6.393,8.361,14.263
		C133.531,43.281,129.843,50.904,124.679,50.904"/>
	<path clip-path="url(#SVGID_2_)" fill-rule="evenodd" clip-rule="evenodd" fill="#5E5E5E" d="M43.28,0.985H0v2.213l2.46,0.246
		c3.196,0.491,4.426,2.458,4.917,7.131c0.739,8.852,0.493,24.837,0,32.461c-0.491,4.671-1.721,6.886-4.917,7.131L0,50.659v1.968
		h27.789v-1.968l-2.952-0.492c-3.196-0.245-4.427-2.46-4.918-7.131c-0.246-3.198-0.492-8.361-0.492-14.755l5.902,0.246
		c3.69,0,5.41,2.951,6.148,7.131h2.214V18.199h-2.214c-0.738,4.18-2.458,7.131-6.148,7.131l-5.902,0.245
		c0-8.36,0.246-16.23,0.492-20.902h8.606c6.641,0,10.084,4.18,12.542,11.558l2.459-0.738L43.28,0.985z"/>
	<path clip-path="url(#SVGID_2_)" fill-rule="evenodd" clip-rule="evenodd" fill="#5E5E5E" d="M57.297,14.755
		c12.297,0,18.445,8.361,18.445,19.427c0,10.574-6.885,19.428-19.182,19.428c-12.296,0-18.443-8.36-18.443-19.428
		C38.117,23.608,45.002,14.755,57.297,14.755 M56.56,17.214c-5.41,0-6.885,7.377-6.885,16.968c0,9.345,2.459,16.969,7.379,16.969
		c5.653,0,7.13-7.377,7.13-16.969C64.184,24.837,61.725,17.214,56.56,17.214"/>
	<path clip-path="url(#SVGID_2_)" fill-rule="evenodd" clip-rule="evenodd" fill="#5E5E5E" d="M148.286,34.427
		c0-10.081,6.393-19.672,18.937-19.672c10.327,0,15.246,7.624,15.246,17.705h-22.871c-0.245,9.1,4.181,15.738,13.034,15.738
		c3.935,0,5.902-0.983,8.36-2.704l0.984,1.229c-2.46,3.442-7.869,6.886-14.754,6.886C156.155,53.61,148.286,45.741,148.286,34.427
		 M159.598,29.756l11.558-0.247c0-4.918-0.736-12.295-4.917-12.295S159.843,24.1,159.598,29.756"/>
	<path clip-path="url(#SVGID_2_)" fill-rule="evenodd" clip-rule="evenodd" fill="#5E5E5E" d="M211.731,16.723
		c-2.951-1.231-6.887-1.968-11.312-1.968c-9.099,0-14.755,5.409-14.755,11.804c0,6.394,4.179,9.099,10.082,11.066
		c6.147,2.213,7.87,3.935,7.87,6.885c0,2.952-2.214,5.657-6.148,5.657c-4.672,0-8.115-2.705-10.82-10.083l-1.723,0.492l0.247,10.819
		c2.951,1.23,8.361,2.213,13.033,2.213c9.591,0,15.739-4.918,15.739-12.54c0-5.165-2.706-8.115-9.101-10.575
		c-6.885-2.704-9.344-4.425-9.344-7.623c0-3.197,2.214-5.411,5.164-5.411c4.427,0,7.377,2.705,9.591,9.345l1.722-0.491
		L211.731,16.723z"/>
	<path clip-path="url(#SVGID_2_)" fill-rule="evenodd" clip-rule="evenodd" fill="#5E5E5E" d="M107.71,15.739
		c-4.18-2.459-11.558-1.23-15.493,7.623l0.246-8.606l-16.476,3.197v1.475l1.722,0.245c2.213,0.247,3.196,1.476,3.442,4.674
		c0.492,5.901,0.247,16.23,0,21.394c-0.246,2.95-1.229,4.426-3.442,4.672l-1.722,0.246v1.968h22.87v-1.968l-2.951-0.246
		c-2.459-0.246-3.197-1.722-3.443-4.672c-0.491-4.672-0.491-14.017-0.246-19.919c1.23-1.722,6.64-3.198,11.557,0L107.71,15.739z"/>
</g>
</svg>
